<svg xmlns="http://www.w3.org/2000/svg" viewBox="0 0 390 844" width="390" height="844" style="font-family: system-ui, sans-serif;">
  <!-- Phone frame background -->
  <rect width="390" height="844" rx="40" fill="#0F1E1D"/>

  <!-- Status bar -->
  <rect x="0" y="0" width="390" height="44" rx="40" fill="#0F1E1D"/>
  <text x="30" y="28" fill="#E0F2F1" font-size="13" font-weight="600">9:41</text>
  <rect x="330" y="18" width="38" height="14" rx="3" fill="none" stroke="#E0F2F1" stroke-width="1.5" opacity="0.6"/>
  <rect x="332" y="20" width="28" height="10" rx="2" fill="#4DB6AC"/>
  <rect x="370" y="22" width="3" height="6" rx="1.5" fill="#E0F2F1" opacity="0.6"/>

  <!-- Greeting -->
  <text x="20" y="76" fill="#90A4AE" font-size="14">👋</text>
  <text x="42" y="76" fill="#90A4AE" font-size="14">Hola</text>

  <!-- Balance Card -->
  <rect x="16" y="88" width="358" height="110" rx="20" fill="#1A3330"/>
  <text x="34" y="116" fill="#80CBC4" font-size="12">Patrimonio total</text>
  <text x="34" y="146" fill="#E0F2F1" font-size="30" font-weight="700">$ 284.750</text>
  <text x="34" y="168" fill="#90A4AE" font-size="11">ARS</text>
  <!-- month summary chips -->
  <rect x="200" y="102" width="78" height="26" rx="13" fill="#0D2826"/>
  <text x="216" y="119" fill="#66BB6A" font-size="11">↑ $48.200</text>
  <rect x="286" y="102" width="78" height="26" rx="13" fill="#0D2826"/>
  <text x="302" y="119" fill="#EF5350" font-size="11">↓ $31.400</text>

  <!-- Accounts row label -->
  <text x="20" y="222" fill="#E0F2F1" font-size="14" font-weight="600">Cuentas</text>
  <text x="330" y="222" fill="#4DB6AC" font-size="12">Ver todas</text>

  <!-- Account card 1 -->
  <rect x="16" y="232" width="130" height="74" rx="16" fill="#00897B"/>
  <text x="30" y="255" fill="white" font-size="11" opacity="0.85">💳 Santander</text>
  <text x="30" y="277" fill="white" font-size="16" font-weight="700">$124.500</text>
  <text x="30" y="294" fill="white" font-size="10" opacity="0.7">ARS</text>

  <!-- Account card 2 -->
  <rect x="154" y="232" width="130" height="74" rx="16" fill="#1A3330"/>
  <text x="168" y="255" fill="#E0F2F1" font-size="11" opacity="0.85">👛 Efectivo</text>
  <text x="168" y="277" fill="#E0F2F1" font-size="16" font-weight="700">$42.750</text>
  <text x="168" y="294" fill="#90A4AE" font-size="10">ARS</text>

  <!-- Account card 3 (partial) -->
  <rect x="292" y="232" width="130" height="74" rx="16" fill="#1A3330"/>
  <text x="306" y="255" fill="#E0F2F1" font-size="11" opacity="0.85">🏦 BBVA</text>
  <text x="306" y="277" fill="#E0F2F1" font-size="16" font-weight="700">$98.000</text>
  <text x="306" y="294" fill="#90A4AE" font-size="10">ARS</text>

  <!-- Summary chips row -->
  <rect x="16" y="320" width="110" height="48" rx="14" fill="#1A3330"/>
  <text x="30" y="339" fill="#90A4AE" font-size="10">Inversiones</text>
  <text x="30" y="357" fill="#4DB6AC" font-size="13" font-weight="600">$19.500</text>

  <rect x="134" y="320" width="110" height="48" rx="14" fill="#1A3330"/>
  <text x="148" y="339" fill="#90A4AE" font-size="10">Deudas</text>
  <text x="148" y="357" fill="#EF5350" font-size="13" font-weight="600">$8.300</text>

  <rect x="252" y="320" width="122" height="48" rx="14" fill="#1A3330"/>
  <text x="266" y="339" fill="#90A4AE" font-size="10">Este mes</text>
  <text x="266" y="357" fill="#66BB6A" font-size="13" font-weight="600">+$16.800</text>

  <!-- Recent transactions label -->
  <text x="20" y="396" fill="#E0F2F1" font-size="14" font-weight="600">Últimas transacciones</text>

  <!-- Transaction rows -->
  <!-- Row 1 -->
  <rect x="16" y="406" width="358" height="58" rx="14" fill="#162A28"/>
  <rect x="30" y="419" width="32" height="32" rx="10" fill="#00897B" opacity="0.3"/>
  <text x="38" y="440" font-size="16">🛒</text>
  <text x="74" y="432" fill="#E0F2F1" font-size="13" font-weight="500">Supermercado</text>
  <text x="74" y="450" fill="#90A4AE" font-size="11">Alimentación · hoy</text>
  <text x="310" y="440" fill="#EF5350" font-size="14" font-weight="600">−$4.200</text>

  <!-- Row 2 -->
  <rect x="16" y="470" width="358" height="58" rx="14" fill="#162A28"/>
  <rect x="30" y="483" width="32" height="32" rx="10" fill="#00897B" opacity="0.3"/>
  <text x="38" y="504" font-size="16">💰</text>
  <text x="74" y="496" fill="#E0F2F1" font-size="13" font-weight="500">Sueldo</text>
  <text x="74" y="514" fill="#90A4AE" font-size="11">Ingresos · ayer</text>
  <text x="294" y="504" fill="#66BB6A" font-size="14" font-weight="600">+$180.000</text>

  <!-- Row 3 -->
  <rect x="16" y="534" width="358" height="58" rx="14" fill="#162A28"/>
  <rect x="30" y="547" width="32" height="32" rx="10" fill="#00897B" opacity="0.3"/>
  <text x="38" y="568" font-size="16">⛽</text>
  <text x="74" y="560" fill="#E0F2F1" font-size="13" font-weight="500">Combustible</text>
  <text x="74" y="578" fill="#90A4AE" font-size="11">Transporte · 2 días</text>
  <text x="310" y="568" fill="#EF5350" font-size="14" font-weight="600">−$9.800</text>

  <!-- Row 4 -->
  <rect x="16" y="598" width="358" height="58" rx="14" fill="#162A28"/>
  <rect x="30" y="611" width="32" height="32" rx="10" fill="#00897B" opacity="0.3"/>
  <text x="38" y="632" font-size="16">🍕</text>
  <text x="74" y="624" fill="#E0F2F1" font-size="13" font-weight="500">Delivery</text>
  <text x="74" y="642" fill="#90A4AE" font-size="11">Alimentación · 3 días</text>
  <text x="310" y="632" fill="#EF5350" font-size="14" font-weight="600">−$3.600</text>

  <!-- FAB -->
  <circle cx="340" cy="748" r="30" fill="#00897B"/>
  <text x="326" y="756" fill="white" font-size="22" font-weight="300">+</text>

  <!-- Bottom nav bar -->
  <rect x="0" y="788" width="390" height="56" rx="0" fill="#0F1E1D"/>
  <rect x="0" y="788" width="390" height="1" fill="#1A3330"/>

  <!-- nav icons -->
  <text x="34" y="822" fill="#4DB6AC" font-size="20">🏠</text>
  <text x="108" y="822" fill="#546E7A" font-size="20">💸</text>
  <text x="182" y="822" fill="#546E7A" font-size="20">📊</text>
  <text x="258" y="822" fill="#546E7A" font-size="20">🏦</text>
  <text x="328" y="822" fill="#546E7A" font-size="20">⚙️</text>

  <!-- active tab indicator -->
  <rect x="36" y="784" width="30" height="3" rx="2" fill="#4DB6AC"/>
</svg>
