<svg xmlns="http://www.w3.org/2000/svg" viewBox="0 0 390 844" width="390" height="844" style="font-family: system-ui, sans-serif;">
  <!-- Background -->
  <rect width="390" height="844" rx="40" fill="#0F1E1D"/>

  <!-- Status bar -->
  <rect x="0" y="0" width="390" height="44" rx="40" fill="#0F1E1D"/>
  <text x="30" y="28" fill="#E0F2F1" font-size="13" font-weight="600">9:41</text>
  <rect x="330" y="18" width="38" height="14" rx="3" fill="none" stroke="#E0F2F1" stroke-width="1.5" opacity="0.6"/>
  <rect x="332" y="20" width="28" height="10" rx="2" fill="#4DB6AC"/>

  <!-- AppBar -->
  <text x="20" y="74" fill="#E0F2F1" font-size="18" font-weight="700">Informes</text>

  <!-- Tab bar (5 tabs) -->
  <rect x="16" y="82" width="358" height="38" rx="12" fill="#162A28"/>
  <!-- Categorías tab active -->
  <rect x="20" y="86" width="72" height="30" rx="10" fill="#00897B"/>
  <text x="28" y="106" fill="white" font-size="11" font-weight="500">Categorías</text>
  <text x="100" y="106" fill="#546E7A" font-size="11">Barras</text>
  <text x="158" y="106" fill="#546E7A" font-size="11">Patrimonio</text>
  <text x="238" y="106" fill="#546E7A" font-size="11">Ranking</text>
  <text x="294" y="106" fill="#546E7A" font-size="11">Tendencia</text>

  <!-- Filter chips row -->
  <rect x="16" y="128" width="80" height="28" rx="10" fill="#1A3330"/>
  <text x="24" y="146" fill="#4DB6AC" font-size="11">📅 Este mes</text>
  <rect x="104" y="128" width="72" height="28" rx="10" fill="#1A3330"/>
  <text x="114" y="146" fill="#90A4AE" font-size="11">🏦 Todas</text>
  <rect x="184" y="128" width="72" height="28" rx="10" fill="#1A3330"/>
  <text x="194" y="146" fill="#90A4AE" font-size="11">📂 Todas</text>

  <!-- Pie chart area -->
  <circle cx="195" cy="268" r="90" fill="none" stroke="#1A3330" stroke-width="20"/>
  <!-- Pie segments (simulated with arcs) -->
  <!-- Alimentación 34% -->
  <path d="M195 268 L195 178 A90 90 0 0 1 271 313 Z" fill="#00897B" opacity="0.9"/>
  <!-- Transporte 22% -->
  <path d="M195 268 L271 313 A90 90 0 0 1 195 358 Z" fill="#4DB6AC" opacity="0.9"/>
  <!-- Servicios 18% -->
  <path d="M195 268 L195 358 A90 90 0 0 1 125 313 Z" fill="#80CBC4" opacity="0.9"/>
  <!-- Salud 14% -->
  <path d="M195 268 L125 313 A90 90 0 0 1 147 190 Z" fill="#26A69A" opacity="0.9"/>
  <!-- Otros 12% -->
  <path d="M195 268 L147 190 A90 90 0 0 1 195 178 Z" fill="#0D2826" opacity="0.9"/>

  <!-- Center label -->
  <circle cx="195" cy="268" r="50" fill="#0F1E1D"/>
  <text x="175" y="262" fill="#90A4AE" font-size="11">Gastos</text>
  <text x="163" y="280" fill="#E0F2F1" font-size="15" font-weight="700">$31.400</text>

  <!-- Legend -->
  <rect x="16" y="378" width="12" height="12" rx="3" fill="#00897B"/>
  <text x="34" y="389" fill="#E0F2F1" font-size="12">Alimentación</text>
  <text x="242" y="389" fill="#90A4AE" font-size="12" text-anchor="end">$10.680 · 34%</text>

  <rect x="16" y="400" width="12" height="12" rx="3" fill="#4DB6AC"/>
  <text x="34" y="411" fill="#E0F2F1" font-size="12">Transporte</text>
  <text x="242" y="411" fill="#90A4AE" font-size="12" text-anchor="end">$6.908 · 22%</text>

  <rect x="16" y="422" width="12" height="12" rx="3" fill="#80CBC4"/>
  <text x="34" y="433" fill="#E0F2F1" font-size="12">Servicios</text>
  <text x="242" y="433" fill="#90A4AE" font-size="12" text-anchor="end">$5.652 · 18%</text>

  <rect x="16" y="444" width="12" height="12" rx="3" fill="#26A69A"/>
  <text x="34" y="455" fill="#E0F2F1" font-size="12">Salud</text>
  <text x="242" y="455" fill="#90A4AE" font-size="12" text-anchor="end">$4.396 · 14%</text>

  <rect x="16" y="466" width="12" height="12" rx="3" fill="#0D2826" stroke="#546E7A" stroke-width="1"/>
  <text x="34" y="477" fill="#E0F2F1" font-size="12">Otros</text>
  <text x="242" y="477" fill="#90A4AE" font-size="12" text-anchor="end">$3.764 · 12%</text>

  <!-- Summary cards row -->
  <rect x="16" y="494" width="168" height="64" rx="14" fill="#162A28"/>
  <text x="30" y="516" fill="#90A4AE" font-size="11">Total gastos</text>
  <text x="30" y="540" fill="#EF5350" font-size="18" font-weight="700">$31.400</text>

  <rect x="192" y="494" width="182" height="64" rx="14" fill="#162A28"/>
  <text x="206" y="516" fill="#90A4AE" font-size="11">Promedio diario</text>
  <text x="206" y="540" fill="#E0F2F1" font-size="18" font-weight="700">$1.047</text>

  <!-- Trend note -->
  <rect x="16" y="572" width="358" height="44" rx="12" fill="#162A28"/>
  <text x="30" y="594" fill="#4DB6AC" font-size="12">↓ 18% vs mes anterior</text>
  <text x="240" y="594" fill="#546E7A" font-size="11">vs $38.300</text>

  <!-- Bottom nav -->
  <rect x="0" y="788" width="390" height="56" fill="#0F1E1D"/>
  <rect x="0" y="788" width="390" height="1" fill="#1A3330"/>
  <text x="34" y="822" fill="#546E7A" font-size="20">🏠</text>
  <text x="108" y="822" fill="#546E7A" font-size="20">💸</text>
  <text x="182" y="822" fill="#4DB6AC" font-size="20">📊</text>
  <text x="258" y="822" fill="#546E7A" font-size="20">🏦</text>
  <text x="328" y="822" fill="#546E7A" font-size="20">⚙️</text>
  <rect x="184" y="784" width="30" height="3" rx="2" fill="#4DB6AC"/>
</svg>
