<svg xmlns="http://www.w3.org/2000/svg" viewBox="0 0 390 844" width="390" height="844" style="font-family: system-ui, sans-serif;">
  <!-- Background -->
  <rect width="390" height="844" rx="40" fill="#0F1E1D"/>

  <!-- Status bar -->
  <rect x="0" y="0" width="390" height="44" rx="40" fill="#0F1E1D"/>
  <text x="30" y="28" fill="#E0F2F1" font-size="13" font-weight="600">9:41</text>
  <rect x="330" y="18" width="38" height="14" rx="3" fill="none" stroke="#E0F2F1" stroke-width="1.5" opacity="0.6"/>
  <rect x="332" y="20" width="28" height="10" rx="2" fill="#4DB6AC"/>

  <!-- AppBar -->
  <text x="20" y="74" fill="#E0F2F1" font-size="18" font-weight="700">Transacciones</text>
  <!-- filter icon -->
  <rect x="340" y="56" width="32" height="32" rx="10" fill="#1A3330"/>
  <text x="348" y="77" fill="#4DB6AC" font-size="16">⚙</text>

  <!-- Search bar -->
  <rect x="16" y="92" width="270" height="40" rx="12" fill="#162A28"/>
  <text x="36" y="116" fill="#546E7A" font-size="13">🔍 Buscar...</text>

  <!-- Filter chips -->
  <rect x="294" y="92" width="80" height="40" rx="12" fill="#00897B"/>
  <text x="314" y="116" fill="white" font-size="12" font-weight="500">Gastos</text>

  <!-- Month divider -->
  <text x="20" y="156" fill="#90A4AE" font-size="12" font-weight="600">MAYO 2026</text>
  <line x1="20" y1="164" x2="370" y2="164" stroke="#1A3330" stroke-width="1"/>

  <!-- Transaction items -->
  <!-- 1 -->
  <rect x="16" y="172" width="358" height="62" rx="14" fill="#162A28"/>
  <rect x="28" y="185" width="36" height="36" rx="12" fill="#1A3330"/>
  <text x="36" y="208" font-size="18">🛒</text>
  <text x="76" y="200" fill="#E0F2F1" font-size="13" font-weight="500">Supermercado</text>
  <text x="76" y="217" fill="#546E7A" font-size="11">Alimentación</text>
  <text x="76" y="230" fill="#546E7A" font-size="10">Santander · hoy</text>
  <text x="298" y="200" fill="#EF5350" font-size="14" font-weight="600">−$4.200</text>
  <text x="330" y="215" fill="#546E7A" font-size="10">ARS</text>

  <!-- 2 -->
  <rect x="16" y="240" width="358" height="62" rx="14" fill="#162A28"/>
  <rect x="28" y="253" width="36" height="36" rx="12" fill="#1A3330"/>
  <text x="36" y="276" font-size="18">⛽</text>
  <text x="76" y="268" fill="#E0F2F1" font-size="13" font-weight="500">YPF Combustible</text>
  <text x="76" y="285" fill="#546E7A" font-size="11">Transporte</text>
  <text x="76" y="298" fill="#546E7A" font-size="10">Efectivo · ayer</text>
  <text x="298" y="268" fill="#EF5350" font-size="14" font-weight="600">−$9.800</text>
  <text x="330" y="283" fill="#546E7A" font-size="10">ARS</text>

  <!-- 3 -->
  <rect x="16" y="308" width="358" height="62" rx="14" fill="#162A28"/>
  <rect x="28" y="321" width="36" height="36" rx="12" fill="#1A3330"/>
  <text x="36" y="344" font-size="18">🍕</text>
  <text x="76" y="336" fill="#E0F2F1" font-size="13" font-weight="500">Delivery Rappi</text>
  <text x="76" y="353" fill="#546E7A" font-size="11">Alimentación</text>
  <text x="76" y="366" fill="#546E7A" font-size="10">Santander · 3 días</text>
  <text x="298" y="336" fill="#EF5350" font-size="14" font-weight="600">−$3.600</text>
  <text x="330" y="351" fill="#546E7A" font-size="10">ARS</text>

  <!-- Month divider April -->
  <text x="20" y="398" fill="#90A4AE" font-size="12" font-weight="600">ABRIL 2026</text>
  <line x1="20" y1="406" x2="370" y2="406" stroke="#1A3330" stroke-width="1"/>

  <!-- 4 -->
  <rect x="16" y="414" width="358" height="62" rx="14" fill="#162A28"/>
  <rect x="28" y="427" width="36" height="36" rx="12" fill="#1A3330"/>
  <text x="36" y="450" font-size="18">💰</text>
  <text x="76" y="442" fill="#E0F2F1" font-size="13" font-weight="500">Sueldo Abril</text>
  <text x="76" y="459" fill="#546E7A" font-size="11">Ingresos</text>
  <text x="76" y="472" fill="#546E7A" font-size="10">BBVA · 30 abr</text>
  <text x="288" y="442" fill="#66BB6A" font-size="14" font-weight="600">+$180.000</text>
  <text x="330" y="457" fill="#546E7A" font-size="10">ARS</text>

  <!-- 5 -->
  <rect x="16" y="482" width="358" height="62" rx="14" fill="#162A28"/>
  <rect x="28" y="495" width="36" height="36" rx="12" fill="#1A3330"/>
  <text x="36" y="518" font-size="18">💊</text>
  <text x="76" y="510" fill="#E0F2F1" font-size="13" font-weight="500">Farmacia</text>
  <text x="76" y="527" fill="#546E7A" font-size="11">Salud</text>
  <text x="76" y="540" fill="#546E7A" font-size="10">Efectivo · 28 abr</text>
  <text x="298" y="510" fill="#EF5350" font-size="14" font-weight="600">−$2.450</text>
  <text x="330" y="525" fill="#546E7A" font-size="10">ARS</text>

  <!-- 6 -->
  <rect x="16" y="550" width="358" height="62" rx="14" fill="#162A28"/>
  <rect x="28" y="563" width="36" height="36" rx="12" fill="#1A3330"/>
  <text x="36" y="586" font-size="18">📱</text>
  <text x="76" y="578" fill="#E0F2F1" font-size="13" font-weight="500">Personal móvil</text>
  <text x="76" y="595" fill="#546E7A" font-size="11">Servicios</text>
  <text x="76" y="608" fill="#546E7A" font-size="10">Santander · 25 abr</text>
  <text x="298" y="578" fill="#EF5350" font-size="14" font-weight="600">−$5.200</text>
  <text x="330" y="593" fill="#546E7A" font-size="10">ARS</text>

  <!-- FAB -->
  <circle cx="340" cy="748" r="30" fill="#00897B"/>
  <text x="326" y="756" fill="white" font-size="22" font-weight="300">+</text>

  <!-- Bottom nav -->
  <rect x="0" y="788" width="390" height="56" fill="#0F1E1D"/>
  <rect x="0" y="788" width="390" height="1" fill="#1A3330"/>
  <text x="34" y="822" fill="#546E7A" font-size="20">🏠</text>
  <text x="108" y="822" fill="#4DB6AC" font-size="20">💸</text>
  <text x="182" y="822" fill="#546E7A" font-size="20">📊</text>
  <text x="258" y="822" fill="#546E7A" font-size="20">🏦</text>
  <text x="328" y="822" fill="#546E7A" font-size="20">⚙️</text>
  <rect x="110" y="784" width="30" height="3" rx="2" fill="#4DB6AC"/>
</svg>
